<svg xmlns="http://www.w3.org/2000/svg" version="1.1" xmlns:xlink="http://www.w3.org/1999/xlink" xmlns:svgjs="http://svgjs.dev/svgjs" width="1500" height="234" viewBox="0 0 1500 234"><g transform="matrix(1,0,0,1,-0.9090909090909918,-0.23758056414123985)"><svg viewBox="0 0 396 62" data-background-color="#ffffff" preserveAspectRatio="xMidYMid meet" height="234" width="1500" xmlns="http://www.w3.org/2000/svg" xmlns:xlink="http://www.w3.org/1999/xlink"><g id="tight-bounds" transform="matrix(1,0,0,1,0.2400000000000091,0.06294869648186818)"><svg viewBox="0 0 395.52 61.872316504641105" height="61.872316504641105" width="395.52"><g><svg viewBox="0 0 596.0178668805717 93.23676704605528" height="61.872316504641105" width="395.52"><g><rect width="6.0840722666836875" height="67.80242466084337" x="178.48690386340715" y="12.717171192605953" fill="#ffd700" opacity="1" stroke-width="0" stroke="transparent" fill-opacity="1" class="rect-yte-0" data-fill-palette-color="primary" rx="1%" id="yte-0" data-palette-color="#ffd700"></rect></g><g transform="matrix(1,0,0,1,200.49786688057168,12.885833940518495)"><svg viewBox="0 0 395.52 67.46509916501829" height="67.46509916501829" width="395.52"><g id="textblocktransform"><svg viewBox="0 0 395.52 67.46509916501829" height="67.46509916501829" width="395.52" id="textblock"><g><svg viewBox="0 0 395.52 67.46509916501829" height="67.46509916501829" width="395.52"><g transform="matrix(1,0,0,1,0,0)"><svg width="395.52" viewBox="0.7 -34.9 208.98121949899502 35.65" height="67.46509916501829" data-palette-color="#ffd700"><g class="wordmark-text-0" data-fill-palette-color="primary" id="text-0"><path d="M38.25 0L38.25 0 28.95 0 28.95-0.4Q28.95-1.7 29.7-2.1L29.7-2.1Q30.05-2.25 30.55-2.3L30.55-2.3 32.65-2.4 30.75-28.55 21.4-6.15Q20.15-5.85 19.15-6L19.15-6 9.4-27.7 7.5-2.5 11.15-2.2Q11.35 0 9.75 0L9.75 0 0.7 0 0.7-0.4Q0.7-1.7 1.4-2.1L1.4-2.1Q1.75-2.25 2.25-2.3L2.25-2.3 4.5-2.4 6.8-31.4 3.25-31.7Q3-33.95 4.65-33.95L4.65-33.95 10.6-33.95 20.7-11.25 30-33.95 36.2-33.95Q37.8-33.95 37.6-31.7L37.6-31.7 34.1-31.4 36.35-2.6 39.65-2.2Q39.85 0 38.25 0ZM61.9-15.55L61.9-13.15 46.2-13.15Q46.15-12.65 46.15-11.6L46.15-11.6Q46.15-7.35 47.95-4.73 49.75-2.1 53.55-2.1 57.35-2.1 60.8-4.8L60.8-4.8Q61.4-4.3 61.4-3.55L61.4-3.55Q61.4-2.15 58.67-0.7 55.95 0.75 52.55 0.75L52.55 0.75Q47.9 0.75 45.12-2.3 42.35-5.35 42.35-11.6 42.35-17.85 45.65-21.53 48.95-25.2 53.45-25.2 57.95-25.2 59.95-22.35 61.95-19.5 61.9-15.55L61.9-15.55ZM46.5-15.4L58.25-15.4Q58.25-18.75 56.95-20.73 55.65-22.7 53.17-22.7 50.7-22.7 48.95-20.75 47.2-18.8 46.5-15.4L46.5-15.4ZM84.95-15.55L84.95-13.15 69.25-13.15Q69.2-12.65 69.2-11.6L69.2-11.6Q69.2-7.35 71-4.73 72.8-2.1 76.6-2.1 80.4-2.1 83.85-4.8L83.85-4.8Q84.45-4.3 84.45-3.55L84.45-3.55Q84.45-2.15 81.72-0.7 79 0.75 75.6 0.75L75.6 0.75Q70.95 0.75 68.17-2.3 65.4-5.35 65.4-11.6 65.4-17.85 68.7-21.53 72-25.2 76.5-25.2 81-25.2 83-22.35 85-19.5 84.95-15.55L84.95-15.55ZM69.55-15.4L81.3-15.4Q81.3-18.75 80-20.73 78.7-22.7 76.22-22.7 73.75-22.7 72-20.75 70.25-18.8 69.55-15.4L69.55-15.4ZM106.54-15.3L106.54-15.3 117.04-15.3 117.04-14.9Q117.04-13.15 115.49-13L115.49-13 114.24-12.85 114.14-12.85 114.14-3.55Q112.49-1.6 109.19-0.43 105.89 0.75 102.39 0.75L102.39 0.75Q95.89 0.75 92.27-3.58 88.64-7.9 88.44-16.07 88.24-24.25 92.34-29.48 96.44-34.7 104.04-34.7L104.04-34.7Q109.09-34.7 111.62-32.8 114.14-30.9 114.14-28.3L114.14-28.3Q114.14-27.05 113.42-26.18 112.69-25.3 111.04-25.3L111.04-25.3Q111.04-32.1 103.34-32.1L103.34-32.1Q97.89-32.1 95.07-27.93 92.24-23.75 92.24-16.85 92.24-9.95 94.87-6 97.49-2.05 103.24-2.05L103.24-2.05Q108.09-2.05 110.79-4.35L110.79-4.35 110.79-12.75 105.19-13.05Q104.99-15.3 106.54-15.3ZM118.64-22.35L118.64-23Q118.64-24.45 120.04-24.45L120.04-24.45 125.89-24.45 125.89-9.7Q125.89-6 127.44-4.13 128.99-2.25 132.06-2.25 135.14-2.25 138.29-5L138.29-5 138.29-22.1 134.44-22.35Q134.24-24.45 135.79-24.45L135.79-24.45 141.74-24.45 141.74-2.85 144.19-2.6Q145.34-2.5 145.34-0.45L145.34-0.45 139.29 0.05 138.64-2.6Q135.29 0.75 130.99 0.75L130.99 0.75Q127.54 0.75 124.99-1.7 122.44-4.15 122.44-9.4L122.44-9.4 122.44-22.1 118.64-22.35ZM158.34 0L158.34 0 148.84 0 148.84-0.4Q148.84-1.6 149.54-1.9L149.54-1.9Q149.89-2.1 150.39-2.15L150.39-2.15 152.49-2.25 152.49-22.05 149.89-22.25Q148.69-22.4 148.69-24.4L148.69-24.4 155.94-25.2 155.94-2.35 159.74-2.05Q159.94 0 158.34 0ZM155.59-29.78Q154.89-29.1 153.79-29.1 152.69-29.1 152.01-29.78 151.34-30.45 151.34-31.55 151.34-32.65 152.01-33.35 152.69-34.05 153.79-34.05 154.89-34.05 155.59-33.35 156.29-32.65 156.29-31.55 156.29-30.45 155.59-29.78ZM184.24 0.75L184.24 0.75Q180.94 0.75 180.69-2.9L180.69-2.9Q177.04 0.75 172.84 0.75 168.64 0.75 165.86-2.33 163.09-5.4 162.94-11.53 162.79-17.65 165.96-21.43 169.14-25.2 174.84-25.2L174.84-25.2Q177.89-25.2 180.64-23.9L180.64-23.9 180.64-31.55 178.04-31.85Q176.84-31.95 176.84-34L176.84-34 184.09-34.9 184.09-2 187.29-1.6Q187.19 0.75 184.24 0.75ZM180.64-5.35L180.64-20.05Q177.94-22.5 174.11-22.5 170.29-22.5 168.46-19.58 166.64-16.65 166.64-12.25 166.64-7.85 168.44-5.03 170.24-2.2 173.94-2.2L173.94-2.2Q175.79-2.2 177.24-2.95 178.69-3.7 180.64-5.35L180.64-5.35ZM209.68-15.55L209.68-13.15 193.98-13.15Q193.93-12.65 193.93-11.6L193.93-11.6Q193.93-7.35 195.73-4.73 197.53-2.1 201.33-2.1 205.13-2.1 208.58-4.8L208.58-4.8Q209.18-4.3 209.18-3.55L209.18-3.55Q209.18-2.15 206.46-0.7 203.73 0.75 200.33 0.75L200.33 0.75Q195.68 0.75 192.91-2.3 190.13-5.35 190.13-11.6 190.13-17.85 193.43-21.53 196.73-25.2 201.23-25.2 205.73-25.2 207.73-22.35 209.73-19.5 209.68-15.55L209.68-15.55ZM194.28-15.4L206.03-15.4Q206.03-18.75 204.73-20.73 203.43-22.7 200.96-22.7 198.48-22.7 196.73-20.75 194.98-18.8 194.28-15.4L194.28-15.4Z" fill="#ffd700" data-fill-palette-color="primary"></path></g></svg></g></svg></g></svg></g></svg></g><g><svg viewBox="0 0 162.5600131129263 93.23676704605528" height="93.23676704605528" width="162.5600131129263"><g><svg xmlns="http://www.w3.org/2000/svg" xmlns:xlink="http://www.w3.org/1999/xlink" version="1.1" x="0" y="0" viewBox="6.026955130041243 24.7795 87.94404486995876 50.44056202758861" enable-background="new 0 0 100 100" xml:space="preserve" height="93.23676704605528" width="162.5600131129263" class="icon-icon-0" data-fill-palette-color="accent" id="icon-0"><path fill-rule="evenodd" clip-rule="evenodd" d="M54.714 24.988L56.61 24.802C56.981 24.772 57.303 24.772 57.583 24.802 58.384 24.864 58.985 24.942 59.39 25.034L61.056 25.497C63.031 26.083 64.9 27.071 66.656 28.46 68.078 29.602 69.234 30.774 70.131 31.978L71.195 33.645C71.966 35.311 71.672 35.311 70.316 33.645L69.574 32.672A20.2 20.2 0 0 0 66.058 29.571C64.326 28.429 62.568 27.642 60.779 27.21L59.158 26.84A28 28 0 0 0 57.539 26.746H56.66L54.9 26.978C54.56 27.009 54.265 27.086 54.017 27.209L53.14 27.441C52.738 27.594 52.447 27.703 52.259 27.765 51.515 28.074 50.886 28.336 50.363 28.552 49.375 29.015 48.709 29.323 48.373 29.478 47.6 29.787 46.873 30.019 46.193 30.172A9 9 0 0 1 43.834 30.404 21 21 0 0 1 41.426 29.941C40.406 29.663 39.68 29.463 39.25 29.339 38.418 29.153 37.693 29.045 37.076 29.015 35.777 28.952 34.326 29.215 32.721 29.802L31.563 30.219C31.163 30.405 30.733 30.558 30.27 30.682 29.651 30.867 28.817 31.053 27.77 31.238 25.731 31.577 24.235 31.823 23.278 31.978 22.292 32.164 21.579 32.317 21.147 32.441 20.409 32.627 19.727 32.858 19.112 33.136 17.753 33.692 16.69 34.479 15.919 35.498A6.9 6.9 0 0 0 14.944 37.303C14.667 38.074 14.481 38.785 14.391 39.433 14.391 39.556 14.358 39.927 14.297 40.543A9 9 0 0 0 14.25 41.654V41.932L14.527 43.784C14.619 44.278 14.802 45.019 15.086 46.006 15.268 46.964 15.377 47.782 15.406 48.46 15.406 48.83 15.392 49.263 15.361 49.757 15.33 50.096 15.267 50.511 15.175 51.006A6.8 6.8 0 0 1 14.296 53.228 20 20 0 0 1 13.14 54.941C12.89 55.281 12.505 55.759 11.98 56.377 11.548 56.932 11.24 57.38 11.054 57.719A6.8 6.8 0 0 0 10.452 59.154C10.327 59.525 10.266 59.987 10.266 60.543 10.295 60.883 10.36 61.408 10.452 62.118A10 10 0 0 1 10.36 65.45L10.266 65.867A2.4 2.4 0 0 1 10.127 66.284C10.066 66.469 9.943 66.685 9.758 66.931 9.666 67.148 9.449 67.488 9.11 67.951 8.864 68.29 8.692 68.584 8.6 68.83A5 5 0 0 1 8.461 69.201V69.525C8.524 69.896 8.772 70.297 9.201 70.728 9.416 71.007 9.713 71.33 10.082 71.702 10.326 71.979 10.482 72.226 10.543 72.442 10.977 73.121 11.209 73.816 11.238 74.525H11.146A1.5 1.5 0 0 0 10.775 74.479C8.062 74.294 6.701 74.093 6.701 73.876 6.701 73.692 7.83 73.522 10.082 73.368 9.803 72.565 9.387 71.901 8.83 71.377 8.646 71.254 8.445 71.053 8.228 70.775A3.2 3.2 0 0 1 7.72 69.757 0.8 0.8 0 0 1 7.671 69.432V69.062C7.702 68.814 7.751 68.599 7.812 68.414 7.937 68.106 8.123 67.719 8.367 67.257L9.201 65.73 9.293 65.451V65.22A9.7 9.7 0 0 0 9.248 62.396 65 65 0 0 1 8.969 60.638C8.908 59.958 8.969 59.294 9.155 58.646A9.2 9.2 0 0 1 9.899 56.702C10.11 56.332 10.452 55.807 10.915 55.128 11.409 54.48 11.765 53.986 11.979 53.647 12.411 53.061 12.737 52.566 12.952 52.166 13.292 51.642 13.493 51.085 13.554 50.499L13.695 49.527A4 4 0 0 0 13.695 48.693C13.664 48.108 13.539 47.412 13.324 46.61A55 55 0 0 1 12.767 44.388C12.646 43.709 12.566 43.277 12.537 43.091L12.445 41.749C12.412 41.162 12.412 40.715 12.445 40.406 12.476 39.82 12.506 39.371 12.537 39.063 12.598 38.631 12.676 38.214 12.767 37.813A5 5 0 0 0 12.304 38.138C11.286 38.756 10.343 39.032 9.48 38.971 8.677 38.939 7.923 38.661 7.214 38.138 6.716 37.675 6.38 37.212 6.194 36.749 6.01 36.378 5.977 36.116 6.1 35.962 6.163 35.869 6.362 35.885 6.702 36.008 6.921 36.132 7.306 36.318 7.86 36.565 8.446 36.75 8.987 36.796 9.479 36.703 10.002 36.641 10.637 36.378 11.377 35.916 11.902 35.577 12.645 35.021 13.6 34.25 14.526 33.508 15.051 33.077 15.174 32.953 15.299 32.829 15.469 32.721 15.684 32.629A9.3 9.3 0 0 1 18.508 30.777C19.742 30.284 21.24 29.882 22.996 29.574 23.986 29.389 25.484 29.126 27.49 28.787A20 20 0 0 0 29.851 28.278L33.322 27.028 37.166 26.611C37.904 26.704 38.709 26.844 39.572 27.028 39.941 27.152 40.699 27.367 41.84 27.675 43.26 28.108 44.602 28.2 45.869 27.953 46.424 27.829 47.072 27.614 47.814 27.305 48.152 27.182 48.8 26.92 49.755 26.517L51.702 25.777A14 14 0 0 1 52.72 25.453L53.691 25.128C53.909 25.065 54.249 25.019 54.714 24.988M72.167 36.654C71.981 36.531 71.657 36.376 71.194 36.192 70.948 36.069 70.825 35.976 70.825 35.914 70.825 35.853 70.964 35.775 71.241 35.682 71.487 35.652 71.735 35.637 71.981 35.637 72.227 35.668 72.368 35.682 72.397 35.682 72.645 35.776 72.92 35.884 73.231 36.007 73.538 36.161 73.848 36.393 74.155 36.702 74.743 37.32 75.223 38.183 75.593 39.294 75.777 39.82 76.056 40.945 76.427 42.674L76.843 44.387C76.937 44.788 77.029 45.081 77.12 45.266 77.12 45.39 77.167 45.512 77.259 45.637 77.32 45.853 77.366 45.976 77.398 46.007 77.923 47.056 78.63 47.612 79.529 47.674A3.15 3.15 0 0 0 80.918 47.442L81.611 47.025C81.705 46.994 81.828 46.901 81.982 46.747L82.259 46.469A5 5 0 0 0 82.63 46.006L83.694 44.709 84.76 46.284 84.899 46.701C84.962 46.793 85.004 46.917 85.036 47.072L85.13 47.58C85.159 47.674 85.175 47.828 85.175 48.044V49.016L85.085 49.155V49.247H85.175L85.316 49.2 85.595 49.155C85.716 49.155 85.808 49.092 85.87 48.969L86.194 48.83C86.842 48.46 87.507 47.873 88.186 47.071 89.079 46.052 90.038 44.663 91.053 42.904A40 40 0 0 0 92.582 39.802 10 10 0 0 1 93 38.969C93.031 38.629 93.063 38.459 93.09 38.459 93.123 38.428 93.184 38.491 93.278 38.646 93.307 38.676 93.325 38.754 93.325 38.876 93.358 38.876 93.372 38.892 93.372 38.923L93.694 40.034 93.971 43.043C93.971 43.167 93.942 43.722 93.879 44.709 93.756 45.759 93.676 46.345 93.647 46.469 93.401 47.488 93.231 48.136 93.139 48.414L92.444 50.312C92.012 51.361 91.688 52.056 91.473 52.395 91.379 52.549 91.18 52.889 90.869 53.415 90.5 53.938 90.269 54.248 90.176 54.34 89.774 54.865 89.278 55.45 88.694 56.1L87.909 56.933C87.784 57.119 87.569 57.411 87.257 57.813A12.5 12.5 0 0 0 86.15 59.709C85.933 60.204 85.67 60.975 85.363 62.024 85.113 63.012 84.947 63.583 84.851 63.737L84.572 64.57A10 10 0 0 1 84.113 65.543L84.019 65.729 83.88 65.821C83.726 65.944 83.634 66.021 83.603 66.052A1.3 1.3 0 0 1 82.999 66.376H81.981C81.948 66.376 81.504 66.284 80.637 66.099L79.387 65.728C79.139 65.666 78.756 65.588 78.229 65.497 77.088 65.342 76.239 65.142 75.682 64.894 75.223 64.77 74.774 64.508 74.342 64.106 74.065 63.89 73.725 63.551 73.322 63.087 73.045 62.747 72.537 62.054 71.795 61.004A80 80 0 0 0 70.543 59.2C70.145 58.705 69.773 58.381 69.434 58.226 68.909 58.01 68.307 58.165 67.629 58.689H67.537C67.691 58.875 67.812 59.044 67.906 59.199 68.121 59.507 68.261 59.816 68.322 60.124 68.445 60.464 68.51 60.88 68.51 61.374 68.479 61.806 68.354 62.377 68.137 63.087L67.629 65.356C67.629 65.665 67.645 65.942 67.674 66.189 67.737 66.374 67.86 66.622 68.047 66.929L69.11 68.921 69.622 70.448 69.665 70.541 69.435 70.68C68.972 71.019 68.601 71.251 68.324 71.374L67.814 71.513 67.445 71.559H66.797C66.58 71.559 66.41 71.543 66.287 71.513A2 2 0 0 1 65.594 71.236C65.471 71.174 65.408 71.081 65.408 70.958S65.701 70.696 66.287 70.541L66.752 70.448C67.029 70.325 67.184 70.247 67.213 70.217L67.49 70.078 67.631 69.986 67.721 69.8C67.784 69.8 67.784 69.77 67.721 69.707L66.705 68.318A4.4 4.4 0 0 1 66.01 67.021C65.795 66.497 65.701 65.911 65.733 65.262 65.764 64.923 65.778 64.676 65.778 64.522L65.872 63.734C65.936 63.519 66.06 63.04 66.243 62.3 66.397 61.712 66.473 61.343 66.473 61.188V61.002L66.332 60.677C66.242 60.493 66.025 60.216 65.686 59.844 65.442 59.536 64.932 58.949 64.159 58.085 63.542 57.345 63.063 56.711 62.723 56.187 62.26 55.446 61.95 54.721 61.797 54.012A6 6 0 0 0 61.75 53.456L61.658 52.946C61.719 52.39 61.75 52.081 61.75 52.02 61.783 51.65 61.813 51.388 61.844 51.234L62.03 50.677C62.307 49.937 62.522 49.614 62.678 49.705 62.77 49.736 62.815 50.137 62.815 50.909V51.417C62.815 51.572 62.831 51.804 62.862 52.112 62.862 52.205 62.893 52.405 62.956 52.714L63.188 53.455C63.432 54.226 64.143 55.199 65.317 56.372L66.196 57.113C66.507 57.451 66.782 57.776 67.03 58.085A0.7 0.7 0 0 0 67.214 58.224L67.261 58.178C67.507 57.839 67.784 57.561 68.093 57.345A2.17 2.17 0 0 1 69.716 56.974C70.237 57.129 70.794 57.499 71.38 58.085 71.784 58.456 72.292 59.042 72.911 59.844 73.557 60.647 74.05 61.234 74.391 61.604 75.069 62.283 75.657 62.701 76.151 62.854H76.241C76.675 63.008 77.399 63.132 78.421 63.224 78.819 63.286 79.253 63.348 79.716 63.41 79.87 63.471 80.103 63.518 80.409 63.549L80.825 63.734 82.216 64.012H82.538L82.585 63.966 83.001 62.762C83.032 62.762 83.187 62.269 83.464 61.28 83.804 60.108 84.128 59.212 84.439 58.595 84.837 57.638 85.302 56.82 85.828 56.141 85.891 56.017 86.168 55.694 86.66 55.169L89.486 51.929C89.763 51.589 89.947 51.327 90.041 51.142 90.258 50.833 90.549 50.231 90.92 49.336L91.707 47.67C91.801 47.422 91.891 47.129 91.984 46.789 92.107 46.419 92.203 46.157 92.259 46.002 92.447 45.261 92.57 44.721 92.632 44.382 92.755 43.733 92.831 43.271 92.862 42.993L92.952 41.28A17 17 0 0 1 92.122 43.733C91.351 45.555 90.438 47.159 89.39 48.549 89.021 49.012 88.667 49.413 88.326 49.753 87.863 50.246 87.43 50.632 87.031 50.91L86.197 51.372 85.549 51.511H85.225C84.916 51.604 84.668 51.65 84.485 51.65 84.145 51.557 83.93 51.511 83.837 51.511L82.54 51.141 83.188 48.733H83.096A6 6 0 0 1 82.586 49.15L81.568 49.705C80.797 50.044 80.056 50.153 79.345 50.029 78.574 49.967 77.865 49.674 77.214 49.15A7.4 7.4 0 0 1 75.778 47.112L75.178 45.029A74 74 0 0 1 74.805 43.132 160 160 0 0 0 74.297 39.89C74.049 38.902 73.742 38.177 73.373 37.714 73.248 37.529 73.047 37.314 72.769 37.067S72.29 36.685 72.167 36.654M62.813 60.868C63.186 61.301 63.479 61.794 63.692 62.35 63.88 62.721 64.003 63.214 64.063 63.832 64.126 64.047 64.172 64.295 64.202 64.572 64.202 64.696 64.218 64.927 64.249 65.266 64.249 65.73 64.218 66.177 64.157 66.61A59 59 0 0 1 63.88 68.693C63.849 69.249 63.896 69.68 64.019 69.99L64.203 70.452C64.266 70.514 64.359 70.621 64.482 70.776L65.037 71.239C65.16 71.362 65.223 71.47 65.223 71.563S65.145 71.718 64.993 71.748H64.624L64.204 71.655C64.175 71.655 63.989 71.563 63.651 71.377A3 3 0 0 0 63.372 71.146L63.188 70.96 63.047 70.728C62.707 70.204 62.522 69.525 62.492 68.691A11 11 0 0 1 62.447 67.58L62.492 66.469C62.492 66.221 62.476 65.883 62.447 65.45L62.259 64.34C62.105 63.63 61.843 63.059 61.472 62.626 61.163 62.256 60.576 61.84 59.712 61.376 59.251 61.129 58.556 60.805 57.63 60.404 56.642 60.034 55.933 59.709 55.501 59.431A7.1 7.1 0 0 1 53.554 58.136C53.091 57.672 52.646 57.102 52.212 56.423A14 14 0 0 1 51.425 54.895L50.87 53.737C50.561 53.089 50.438 52.734 50.501 52.672 50.624 52.518 50.946 52.672 51.472 53.135 51.779 53.382 52.058 53.676 52.306 54.015L53.277 55.357C53.65 55.757 54.05 56.128 54.48 56.468 54.916 56.777 55.453 57.07 56.101 57.348 56.533 57.533 57.228 57.78 58.185 58.088 58.431 58.181 58.818 58.351 59.341 58.597 59.929 58.814 60.329 58.998 60.544 59.153 61.563 59.741 62.321 60.313 62.813 60.868M50.685 57.627A16 16 0 0 1 49.714 58.599C49.683 58.63 49.665 58.661 49.665 58.692 49.665 58.878 49.618 59.371 49.526 60.173L48.924 65.035C48.647 67.288 48.371 68.939 48.092 69.989 47.938 70.636 47.891 71.887 47.951 73.738 47.982 74.356 48.047 74.85 48.137 75.22H38.23A550 550 0 0 1 27.906 75.128L27.859 71.285A0.8 0.8 0 0 0 27.812 71.054L27.767 70.776 27.535 70.313C27.381 70.097 27.025 69.896 26.472 69.711L25.638 69.433A12 12 0 0 1 24.572 68.97C24.203 68.785 23.83 68.476 23.461 68.045 23.184 67.674 22.92 67.196 22.674 66.61 22.303 65.684 22.088 64.588 22.028 63.322 22.028 62.706 22.057 62.119 22.12 61.563L22.397 60.127C22.458 59.849 22.506 59.695 22.534 59.665 22.876 58.769 23.43 57.797 24.204 56.748 24.448 56.501 25.034 55.822 25.964 54.712 27.259 53.322 28.091 52.165 28.462 51.24A6.8 6.8 0 0 0 29.017 49.712C29.08 49.403 29.126 48.971 29.156 48.416 29.22 47.922 29.248 47.629 29.248 47.537 29.281 47.259 29.312 47.12 29.344 47.12 29.434 47.089 29.528 47.166 29.619 47.351 29.715 47.567 29.822 47.876 29.943 48.277 30.068 48.862 30.129 49.403 30.129 49.897A8 8 0 0 1 29.76 51.98C29.481 52.813 29.11 53.616 28.651 54.387 28.774 54.603 29.11 54.974 29.665 55.499A14 14 0 0 0 31.704 57.165C32.507 57.69 33.542 58.169 34.806 58.601 36.226 59.002 37.753 59.249 39.39 59.342 40.224 59.372 41.025 59.357 41.796 59.295A47 47 0 0 0 44.066 58.925 18.3 18.3 0 0 0 47.769 57.906C47.986 57.782 48.818 57.427 50.271 56.842 50.888 56.564 51.226 56.487 51.289 56.61 51.38 56.763 51.179 57.103 50.685 57.627M54.157 61.285A26 26 0 0 1 53.509 63.647L52.675 66.193 52.489 66.564C52.368 66.903 52.182 67.365 51.936 67.952L51.842 68.23C51.842 68.291 51.856 68.384 51.889 68.507 51.979 68.785 52.057 69.016 52.119 69.202 52.182 69.357 52.367 69.51 52.674 69.664L52.77 69.71 52.907 69.896C52.999 69.896 53.091 69.957 53.186 70.081L53.416 70.312 53.553 70.682C53.616 70.898 53.649 71.083 53.649 71.238L53.743 71.979C53.77 72.102 53.786 72.271 53.786 72.488 61.009 72.581 67.397 72.719 72.952 72.905 80.515 73.151 84.296 73.476 84.296 73.876 84.296 74.248 80.515 74.586 72.952 74.895 67.182 75.08 60.499 75.188 52.907 75.219 52.813 73.182 52.755 72.086 52.721 71.932 52.69 71.623 52.645 71.453 52.582 71.423L52.445 71.284H52.211C51.963 71.253 51.813 71.222 51.748 71.191A2.3 2.3 0 0 1 51.055 70.775L50.731 70.451 50.311 69.71 50.127 69.247A2.55 2.55 0 0 1 49.897 68.182C49.897 67.781 49.973 67.38 50.127 66.979 50.19 66.824 50.389 66.315 50.731 65.45L53.602 59.154C53.848 58.846 54.032 58.722 54.157 58.783 54.309 58.815 54.374 59.06 54.343 59.524L54.294 60.311A9 9 0 0 1 54.157 61.285M17.444 49.942C17.688 50.034 17.889 50.189 18.046 50.405 18.23 50.621 18.339 50.76 18.37 50.822L19.018 52.118C19.11 52.304 19.217 52.58 19.34 52.951 19.68 54.062 19.926 55.45 20.082 57.118 20.205 58.29 20.266 60.003 20.266 62.256 20.266 63.399 20.315 64.17 20.407 64.571 20.499 65.066 20.716 65.621 21.053 66.238 21.27 66.61 21.639 67.01 22.164 67.442 22.996 68.152 23.43 68.523 23.461 68.553 23.953 68.985 24.279 69.494 24.432 70.081 24.498 70.174 24.557 70.451 24.621 70.914 24.621 71.068 24.648 71.562 24.711 72.396 24.742 73.198 24.664 74.093 24.481 75.081A249 249 0 0 0 18.045 74.896 321 321 0 0 0 12.303 74.619C12.18 73.384 12.073 72.643 11.979 72.397 11.581 70.946 11.346 69.758 11.286 68.832 11.194 67.814 11.286 66.687 11.563 65.452A17.2 17.2 0 0 1 12.766 61.749C13.817 59.403 15.02 57.536 16.377 56.146 16.932 55.561 17.443 55.143 17.904 54.896 17.967 54.803 18.045 54.757 18.136 54.757A41 41 0 0 1 17.997 53.416 15 15 0 0 0 17.393 50.961C17.209 50.313 17.133 49.959 17.163 49.897 17.228 49.834 17.321 49.851 17.444 49.942M44.39 61.192A11 11 0 0 1 41.98 61.654C41.148 61.809 40.269 61.871 39.341 61.841 37.519 61.716 35.839 61.332 34.294 60.682 32.845 60.127 31.595 59.371 30.548 58.415 29.681 57.613 29.003 56.81 28.509 56.007A7 7 0 0 1 28.091 55.22C27.845 55.56 27.568 55.93 27.259 56.332 26.886 56.763 26.347 57.457 25.64 58.415 25.023 59.248 24.605 60.003 24.388 60.682L24.249 61.007A0.65 0.65 0 0 0 24.204 61.285L24.065 61.888C24.032 62.381 24.018 62.829 24.018 63.23 24.018 64.156 24.141 64.99 24.387 65.731 24.481 66.07 24.604 66.348 24.758 66.564 24.944 66.81 25.129 66.995 25.315 67.119 25.655 67.366 26.208 67.675 26.979 68.046 27.288 68.231 27.567 68.447 27.813 68.693L28.184 69.064C28.338 69.311 28.43 69.48 28.461 69.573 28.553 69.821 28.613 69.99 28.649 70.083 28.864 71.04 28.987 71.889 29.016 72.63 32.01 72.537 35.08 72.49 38.231 72.49H46.749C46.688 71.873 46.657 71.024 46.657 69.943 46.657 68.185 46.749 66.441 46.934 64.713 47.243 62.584 47.661 60.886 48.184 59.621 48.217 59.621 48.231 59.605 48.231 59.575 47.089 60.25 45.808 60.791 44.39 61.192M17.396 57.35C16.164 59.479 15.224 61.332 14.574 62.906 13.494 65.281 12.875 67.258 12.722 68.831A8.8 8.8 0 0 0 12.63 70.683L13.276 73.137C14.633 73.044 16.225 72.966 18.046 72.906 19.866 72.874 21.735 72.813 23.648 72.72L23.789 71.516C23.723 71.33 23.68 71.208 23.648 71.146L23.462 70.683C23.306 70.436 23.044 70.204 22.675 69.989L21.329 69.202A5 5 0 0 1 20.452 68.6C20.235 68.384 20.098 68.245 20.036 68.183L19.296 67.118 18.648 65.868C18.617 65.714 18.57 65.468 18.509 65.129 18.323 64.449 18.23 63.493 18.23 62.257V57.304C18.23 56.81 18.216 56.347 18.185 55.915 18.062 56.223 17.8 56.702 17.396 57.35" fill="#f5ba41" data-fill-palette-color="accent"></path></svg></g></svg></g></svg></g><defs></defs></svg><rect width="395.52" height="61.872316504641105" fill="none" stroke="none" visibility="hidden"></rect></g></svg></g></svg>