<svg xmlns="http://www.w3.org/2000/svg" version="1.1" xmlns:xlink="http://www.w3.org/1999/xlink" xmlns:svgjs="http://svgjs.dev/svgjs" width="2000" height="1500" viewBox="0 0 2000 1500"><rect width="2000" height="1500" fill="#ffffff"></rect><g transform="matrix(0.75,0,0,0.75,249.090909090909,278.98548387096776)"><svg viewBox="0 0 396 248" data-background-color="#ffffff" preserveAspectRatio="xMidYMid meet" height="1252" width="2000" xmlns="http://www.w3.org/2000/svg" xmlns:xlink="http://www.w3.org/1999/xlink"><g id="tight-bounds" transform="matrix(1,0,0,1,0.2400000000000091,0.4000000000000057)"><svg viewBox="0 0 395.52 247.2" height="247.2" width="395.52"><g><svg></svg></g><g><svg viewBox="0 0 395.52 247.2" height="247.2" width="395.52"><g transform="matrix(1,0,0,1,75.54432000000001,87.39268851631735)"><svg viewBox="0 0 244.43135999999996 72.41462296736529" height="72.41462296736529" width="244.43135999999996"><g><svg viewBox="0 0 244.43135999999996 72.41462296736529" height="72.41462296736529" width="244.43135999999996"><g><svg viewBox="0 0 425.2302393485194 125.97764647198106" height="72.41462296736529" width="244.43135999999996"><g transform="matrix(1,0,0,1,180.7988793485194,0)"><svg viewBox="0 0 244.43135999999998 125.97764647198106" height="125.97764647198106" width="244.43135999999998"><g id="textblocktransform"><svg viewBox="0 0 244.43135999999998 125.97764647198106" height="125.97764647198106" width="244.43135999999998" id="textblock"><g><svg viewBox="0 0 244.43135999999998 125.97764647198106" height="125.97764647198106" width="244.43135999999998"><g transform="matrix(1,0,0,1,0,0)"><svg width="244.43135999999998" viewBox="3 -32.3 63.349999999999994 32.65" height="125.97764647198106" data-palette-color="#eab308"><path d="M33.25-32.05L36.4 0 32.8 0 32.05-9.75 30.35-25.7 30-25.7 21.1-3.7 17.8-3.7 9.35-25.7 8.95-25.7 7.25-10.05 6.4 0 3 0 6.35-32.05 10.9-32.05 12.55-27.15 19.5-8.9 19.8-8.9 27.1-27.45 28.75-32.05 33.25-32.05ZM56.95-32.3Q62-32.3 66.35-30.05L66.35-30.05 65.55-26.25 65.05-26.15Q62.65-27.65 60.62-28.3 58.6-28.95 56.35-28.95L56.35-28.95Q45.5-28.95 45.5-15.55L45.5-15.55Q45.5-9.1 48.02-6.08 50.55-3.05 55.85-3.05L55.85-3.05Q57.25-3.05 58.67-3.3 60.1-3.55 62.35-4.25L62.35-4.25 62.45-8 62.4-12.8 66.15-13.1 66.05-8.55 66.25-1.55Q63-0.55 60.5-0.1 58 0.35 55.65 0.35L55.65 0.35Q48.5 0.35 44.92-3.7 41.35-7.75 41.35-15.4L41.35-15.4Q41.35-23.65 45.4-27.98 49.45-32.3 56.95-32.3L56.95-32.3Z" opacity="1" transform="matrix(1,0,0,1,0,0)" fill="#eab308" class="wordmark-text-0" data-fill-palette-color="primary" id="text-0"></path></svg></g></svg></g></svg></g></svg></g><g transform="matrix(1,0,0,1,0,11.459297645331006)"><svg viewBox="0 0 151.05858048 103.05905118131905" height="103.05905118131905" width="151.05858048"><g><svg xmlns="http://www.w3.org/2000/svg" xmlns:xlink="http://www.w3.org/1999/xlink" version="1.1" x="0" y="0" viewBox="6.014641432920749 19.99059762184594 87.97184295797986 60.018402378154065" enable-background="new 0 0 100 100" xml:space="preserve" height="103.05905118131905" width="151.05858048" class="icon-icon-0" data-fill-palette-color="accent" id="icon-0"><path fill-rule="evenodd" clip-rule="evenodd" d="M70.293 20.284C70.357 20.284 70.555 20.392 70.895 20.609 71.266 20.855 71.588 21.164 71.868 21.534 72.145 21.998 72.347 22.445 72.472 22.878 72.656 23.618 72.687 24.437 72.562 25.331A23 23 0 0 1 72.332 26.582C72.611 26.921 72.873 27.229 73.117 27.507A0.6 0.6 0 0 0 73.213 27.368C73.488 26.874 73.875 26.318 74.371 25.702 75.141 24.652 75.816 23.865 76.408 23.34L77.146 22.692C77.488 22.445 77.794 22.275 78.074 22.183 78.318 22.091 78.566 22.043 78.812 22.043L79.091 22.09H79.273L79.461 22.135C79.524 22.135 79.584 22.165 79.647 22.227L80.297 22.552C80.418 22.644 80.526 22.768 80.617 22.922 80.742 23.138 80.82 23.276 80.849 23.339 80.941 23.556 80.99 23.74 80.99 23.895 81.049 24.11 81.082 24.266 81.082 24.358V24.775L80.99 25.099C80.927 25.53 80.82 25.917 80.664 26.256 80.572 26.595 80.434 26.935 80.248 27.275L79.924 27.83C79.863 27.923 79.832 27.985 79.832 28.015L79.646 28.246A8.4 8.4 0 0 1 77.101 30.191 5.4 5.4 0 0 1 75.71 30.607C75.956 30.978 76.267 31.441 76.638 31.996 77.07 32.706 77.378 33.184 77.562 33.432 77.935 33.956 78.304 34.404 78.671 34.775 79.105 35.208 79.538 35.485 79.968 35.608 80.247 35.67 80.495 35.685 80.71 35.654 80.833 35.654 80.958 35.64 81.081 35.608 81.173 35.608 81.251 35.592 81.313 35.561 81.434 35.499 81.606 35.329 81.821 35.052 82.036 34.805 82.239 34.496 82.423 34.126 82.732 33.725 82.964 33.431 83.118 33.246 83.366 32.845 83.612 32.521 83.858 32.274L84.551 31.719C84.799 31.595 85.061 31.533 85.338 31.533H85.756L86.082 31.672C86.328 31.826 86.529 32.012 86.682 32.228 86.805 32.444 86.914 32.69 87.006 32.969 87.039 33.062 87.067 33.201 87.098 33.386 87.129 33.449 87.145 33.572 87.145 33.757 87.145 34.004 87.114 34.328 87.051 34.729L87.471 33.849C87.5 33.818 87.657 33.463 87.932 32.785 88.084 32.229 88.211 31.827 88.303 31.581L88.766 30.192C89.012 29.606 89.211 29.112 89.37 28.711 89.493 28.433 89.63 28.156 89.786 27.878 90.095 27.415 90.419 27.075 90.757 26.86 91.005 26.705 91.191 26.627 91.314 26.627H91.638C91.79 26.659 91.884 26.674 91.915 26.674 92.284 26.829 92.624 27.137 92.931 27.599L93.349 28.572 93.675 29.729C93.952 30.871 94.044 32.105 93.952 33.433 93.858 34.39 93.643 35.47 93.306 36.673A26 26 0 0 1 91.267 41.582 38 38 0 0 1 89.46 44.499 0.3 0.3 0 0 0 89.321 44.638C89.384 44.822 89.46 45.07 89.553 45.378 89.705 45.902 89.801 46.381 89.828 46.813 89.859 46.938 89.877 47.107 89.877 47.323 89.906 47.478 89.906 47.632 89.877 47.786L89.828 48.342 89.644 48.99 89.689 48.945A3.26 3.26 0 0 1 88.812 50.333 5 5 0 0 1 88.164 50.75L87.144 51.353 86.728 51.677C86.542 51.862 86.281 52.202 85.941 52.695 85.662 53.066 85.478 53.297 85.384 53.389 85.077 53.76 84.798 53.991 84.55 54.084A2.9 2.9 0 0 1 83.486 54.455H82.515C81.96 54.393 81.357 54.224 80.708 53.946 80.001 53.545 79.505 53.267 79.228 53.112L73.859 50.659 72.56 49.78 72.097 49.502V49.642L72.007 50.012A2.2 2.2 0 0 1 71.587 50.752C71.403 50.999 70.985 51.37 70.339 51.863 70.028 52.079 69.814 52.265 69.689 52.419L69.55 52.558 69.458 52.603 69.319 52.789C69.258 52.819 69.18 52.897 69.089 53.02 68.995 53.174 68.903 53.406 68.81 53.714 68.747 54.301 68.658 54.763 68.533 55.103A8 8 0 0 1 68.162 55.843L67.976 56.214C67.824 56.4 67.716 56.508 67.654 56.538 67.314 56.908 66.881 57.233 66.357 57.511 65.771 57.788 65.433 57.958 65.339 58.02 65.062 58.236 64.859 58.468 64.737 58.714L64.643 58.76C64.428 59.131 64.213 59.841 63.995 60.889 63.841 61.599 63.735 62.078 63.671 62.326L63.347 63.112A0.3 0.3 0 0 1 63.253 63.343L62.933 63.853A14.4 14.4 0 0 1 61.728 65.52C61.417 65.859 60.999 66.337 60.476 66.953 59.521 68.005 58.872 68.868 58.533 69.547 58.381 69.948 58.287 70.164 58.254 70.195A4.3 4.3 0 0 0 58.024 70.889 6 6 0 0 0 57.932 71.583L57.885 72.185C57.854 72.617 57.901 72.956 58.024 73.204 58.147 73.42 58.333 73.636 58.581 73.852 58.706 73.914 59.028 74.083 59.556 74.36 59.984 74.607 60.308 74.839 60.525 75.055 60.867 75.364 61.095 75.719 61.22 76.121 61.312 76.398 61.343 76.738 61.312 77.139 61.279 77.263 61.435 77.386 61.777 77.511 66.713 77.511 71.33 77.603 75.621 77.788 83.336 78.035 87.193 78.329 87.193 78.667 87.193 79.068 83.336 79.393 75.621 79.64 71.082 79.794 65.973 79.902 60.295 79.964 60.174 77.68 59.629 76.245 58.674 75.659 58.213 75.473 57.965 75.38 57.934 75.38A3.25 3.25 0 0 1 56.682 74.224C56.373 73.699 56.205 73.05 56.174 72.279 56.143 72.063 56.143 71.754 56.174 71.352 56.238 70.766 56.268 70.442 56.268 70.38 56.329 70.01 56.422 69.701 56.543 69.454 56.639 69.084 56.762 68.76 56.914 68.482 57.318 67.556 58.025 66.491 59.047 65.287 60.25 63.838 60.988 62.911 61.268 62.51L61.59 61.815C61.653 61.662 61.697 61.568 61.731 61.538L62.053 60.334C62.18 59.687 62.303 59.208 62.424 58.9 62.578 58.375 62.779 57.911 63.026 57.51 63.026 57.478 63.042 57.464 63.071 57.464A3.76 3.76 0 0 1 64.325 56.122 3 3 0 0 1 65.018 55.751C65.202 55.689 65.418 55.596 65.666 55.472 66.035 55.288 66.297 55.134 66.453 55.01L66.59 54.917 66.961 54.315C67.025 54.161 67.131 53.806 67.285 53.25 67.437 52.694 67.672 52.232 67.978 51.861A7 7 0 0 1 68.443 51.444C68.474 51.414 68.55 51.368 68.675 51.305L68.812 51.12C69.091 50.935 69.384 50.781 69.691 50.658 70.373 50.287 70.791 50.04 70.941 49.917 71.189 49.732 71.359 49.5 71.451 49.222 71.484 49.098 71.498 48.991 71.498 48.899H71.451A12 12 0 0 1 69.832 46.769 23 23 0 0 1 68.953 44.872L68.394 43.39C68.056 42.557 67.947 42.109 68.072 42.047 68.195 41.955 68.521 42.233 69.043 42.88L69.926 44.177C70.51 45.073 70.881 45.596 71.035 45.751A8.3 8.3 0 0 0 72.517 47.371C72.857 47.617 73.179 47.818 73.488 47.973L74.275 48.483 81.502 51.77C81.963 51.986 82.361 52.109 82.703 52.141 83.162 52.171 83.488 52.141 83.672 52.048 83.891 51.956 84.17 51.709 84.508 51.307 85.063 50.66 85.418 50.243 85.574 50.057L85.758 49.918 86.315 49.593C86.532 49.47 86.76 49.362 87.008 49.27L87.934 48.9C88.149 48.714 88.305 48.529 88.397 48.344L88.444 48.298C88.6 47.988 88.704 47.495 88.768 46.816L88.815 45.52C88.815 45.427 88.754 45.042 88.627 44.362 88.66 44.27 88.703 44.146 88.768 43.991L89.971 40.751A43 43 0 0 0 91.5 36.028C91.992 33.806 92.055 31.924 91.682 30.38L91.407 29.362 91.362 29.315C91.268 29.439 91.192 29.593 91.13 29.778 91.036 29.994 90.835 30.426 90.528 31.074L90.018 32.324C89.895 32.633 89.707 33.08 89.461 33.667 89.186 34.253 88.982 34.639 88.861 34.824L88.535 35.287A4 4 0 0 1 88.213 35.796C87.379 36.877 86.516 37.648 85.619 38.11 85.308 38.296 85.047 38.404 84.83 38.434 84.615 38.496 84.492 38.496 84.463 38.434 84.4 38.342 84.647 37.972 85.203 37.323H85.248A2 2 0 0 0 85.295 36.953C85.481 36.058 85.574 35.271 85.574 34.591 85.574 34.283 85.556 34.051 85.527 33.898L85.48 33.805 85.433 33.759C85.372 33.697 85.326 33.697 85.294 33.759H85.247V33.805L85.202 33.851C85.079 34.006 84.708 34.56 84.093 35.518 83.845 35.949 83.613 36.305 83.396 36.583L82.933 37.092A3.3 3.3 0 0 1 82.333 37.648L81.866 37.879A1.5 1.5 0 0 1 81.45 37.972 5 5 0 0 1 80.804 38.065 3.2 3.2 0 0 1 79.413 37.833C78.671 37.587 77.993 37.093 77.378 36.353 76.915 35.859 76.499 35.256 76.128 34.547A22 22 0 0 1 75.386 32.88 137 137 0 0 1 74.415 30.427C75.62 29.408 76.282 28.838 76.407 28.714 77.145 28.066 77.749 27.418 78.21 26.769L78.304 26.63V26.585L78.351 26.537 78.488 26.168C78.58 25.951 78.687 25.705 78.812 25.427 78.904 25.148 78.966 24.918 78.998 24.732V24.408H78.812L78.765 24.362 78.72 24.408H78.67C78.578 24.408 78.412 24.486 78.162 24.64L77.516 25.056C76.991 25.519 76.282 26.137 75.385 26.908 74.645 27.527 74.09 27.911 73.719 28.066A0.34 0.34 0 0 1 73.578 28.111C73.578 28.205 73.596 28.25 73.625 28.25 73.781 28.529 73.904 28.776 73.996 28.991 74.057 29.177 74.074 29.285 74.045 29.315 74.012 29.315 73.676 29.038 73.025 28.482A28 28 0 0 1 71.961 27.649 9 9 0 0 1 71.449 28.759C71.017 29.593 70.588 30.21 70.154 30.611 69.754 31.013 69.49 31.167 69.367 31.075 69.273 30.952 69.306 30.643 69.459 30.149A29 29 0 0 0 70.107 28.066C70.416 26.955 70.601 25.952 70.664 25.056 70.693 24.44 70.648 23.96 70.523 23.621 70.4 23.189 70.168 22.865 69.83 22.648L69.551 22.509 69.274 22.417C69.09 22.324 68.952 22.293 68.856 22.324 68.827 22.324 68.78 22.371 68.721 22.463A9 9 0 0 0 68.487 22.972C68.393 23.342 68.319 23.851 68.255 24.5V28.204C68.255 28.759 68.194 29.053 68.071 29.083 67.915 29.145 67.717 28.898 67.469 28.343 67.219 27.818 66.992 27.093 66.774 26.168A8 8 0 0 0 66.635 25.334 2.6 2.6 0 0 0 65.942 25.148C65.633 25.056 65.434 25.01 65.34 25.01A9 9 0 0 0 64.645 24.964H63.165C62.269 24.994 61.267 25.273 60.155 25.797 59.753 25.982 59.231 26.26 58.581 26.63 57.841 27.032 57.284 27.34 56.913 27.556 54.042 29.038 51.495 30.18 49.276 30.982L44.924 32.278C44.213 32.433 43.424 32.479 42.559 32.417 41.946 32.417 41.157 32.371 40.2 32.278 38.843 32.093 38.073 32 37.886 32A19 19 0 0 0 36.775 31.955L35.572 31.909C33.381 31.909 31.808 31.97 30.849 32.094 30.357 32.187 29.984 32.264 29.74 32.326L26.453 33.483C24.23 34.441 22.73 35.042 21.961 35.289L20.756 35.7A2.8 2.8 0 0 1 20.199 35.886L19.689 35.979C18.951 36.165 18.269 36.395 17.652 36.673A15.2 15.2 0 0 0 13.994 38.803 12.6 12.6 0 0 0 11.219 41.766C10.479 42.938 10 44.158 9.783 45.422 9.66 46.102 9.597 46.75 9.597 47.367V48.293L9.736 49.265A22 22 0 0 0 10.523 52.829C10.8 53.662 11.185 54.728 11.679 56.023 12.267 57.597 12.62 58.554 12.743 58.895 13.425 60.715 13.888 62.321 14.132 63.708 14.163 63.739 14.228 64.063 14.32 64.681L14.412 65.515C14.537 67.181 14.642 68.183 14.736 68.523L15.15 72.041 15.201 72.273 15.291 72.458C15.385 72.612 15.57 72.829 15.848 73.106 16.065 73.354 16.235 73.568 16.36 73.753L16.68 74.355C16.868 74.757 16.973 75.174 17.004 75.606 17.035 75.977 17.067 76.485 17.098 77.133 17.129 77.812 17.004 78.615 16.727 79.541 11.11 79.293 8.301 79 8.301 78.661 8.301 78.384 10.678 78.137 15.432 77.921A0.4 0.4 0 0 1 15.385 77.735V76.485C15.324 76.084 15.217 75.759 15.061 75.513L15.016 75.421 14.828 75.189 14.041 74.355C13.824 74.108 13.656 73.77 13.533 73.338L13.394 70.56A97 97 0 0 1 13.347 67.134C13.316 65.746 13.21 64.649 13.023 63.847 12.869 62.55 12.437 61.07 11.726 59.402 11.169 58.23 10.751 57.303 10.478 56.624A49 49 0 0 1 9.183 53.383 21.4 21.4 0 0 1 8.115 49.587L8.07 49.174A0.7 0.7 0 0 0 8.023 49.404C7.9 50.022 7.728 50.824 7.513 51.812 7.204 53.293 6.929 54.035 6.679 54.035 6.556 54.035 6.433 53.818 6.31 53.386 6.187 52.985 6.093 52.414 6.033 51.674A17.4 17.4 0 0 1 6.773 45.794C7.392 43.85 8.253 42.167 9.365 40.748 9.736 40.316 10.045 39.93 10.291 39.59A17 17 0 0 1 12.885 36.998 18 18 0 0 1 16.959 34.544 12.3 12.3 0 0 1 19.227 33.757L19.782 33.618C20.03 33.525 20.216 33.464 20.341 33.433L21.404 33.063A21 21 0 0 0 23.535 32.229 46 46 0 0 0 25.709 31.257L28.072 30.285C28.226 30.254 28.439 30.207 28.72 30.145L30.616 29.728C31.356 29.604 32.208 29.542 33.163 29.542H36.774C37.485 29.604 37.901 29.65 38.024 29.681 38.272 29.681 39.059 29.758 40.385 29.912 42.237 30.16 43.656 30.19 44.645 30.006L45.153 29.912 48.717 28.894C50.879 28.184 53.365 27.15 56.172 25.792 58.24 24.743 59.381 24.171 59.6 24.079 60.832 23.555 61.993 23.261 63.069 23.199H63.905C64.12 23.199 64.399 23.23 64.739 23.291L65.571 23.477C65.665 23.508 65.911 23.57 66.311 23.663 66.374 23.693 66.452 23.725 66.543 23.754 66.543 23.23 66.574 22.798 66.635 22.458 66.727 21.964 66.867 21.548 67.053 21.208 67.36 20.684 67.762 20.312 68.254 20.097 68.69 19.973 69.166 19.957 69.69 20.051zM60.986 48.617C61.142 48.649 61.234 49.112 61.265 50.007 61.328 50.655 61.357 51.226 61.357 51.72L61.218 52.692C61.126 53.309 61.048 53.726 60.986 53.942L60.523 55.192 58.302 58.757C57.56 59.867 57.036 60.716 56.726 61.303 56.14 62.292 55.726 63.232 55.476 64.127 54.736 66.72 54.212 68.834 53.906 70.47 53.781 71.21 53.703 71.689 53.672 71.906L53.58 73.063C53.609 73.619 53.842 74.174 54.273 74.729L54.968 75.609C55.493 76.072 55.925 76.566 56.265 77.091 56.667 77.647 56.835 78.604 56.773 79.961H54.646C54.736 78.757 54.707 77.955 54.552 77.553 54.398 77.183 54.212 76.89 53.995 76.674A22 22 0 0 1 53.255 75.981C52.915 75.58 52.638 75.209 52.421 74.87 52.144 74.438 51.958 73.896 51.866 73.25A3.7 3.7 0 0 1 51.866 72.416V71.629C51.866 71.567 51.911 71.027 52.005 70.009 52.28 68.156 52.776 65.935 53.487 63.342 53.518 63.311 53.641 63.033 53.856 62.509 53.979 62.107 54.088 61.8 54.18 61.583L55.893 58.62C56.325 58.095 56.649 57.71 56.864 57.463 56.928 57.309 57.219 56.907 57.743 56.259L59.181 54.222 59.413 53.759 59.643 53.296C59.706 53.204 59.766 53.049 59.829 52.833 59.89 52.617 59.934 52.478 59.966 52.416L60.523 49.962C60.709 49.066 60.865 48.617 60.986 48.617M17.469 48.525L17.237 45.701C17.27 45.392 17.284 45.224 17.284 45.192 17.317 44.883 17.362 44.728 17.423 44.728 17.513 44.728 17.609 44.852 17.698 45.099L18.997 49.22 19.554 50.331C20.476 52.214 21.667 53.834 23.118 55.192A19.9 19.9 0 0 0 29.089 59.081 26.3 26.3 0 0 0 35.849 61.073C37.669 61.411 39.57 61.551 41.544 61.489L43.812 61.351A32 32 0 0 0 45.478 61.258C45.605 61.227 45.789 61.212 46.037 61.212 45.879 60.872 45.744 60.518 45.619 60.147 44.754 58.203 44.168 56.644 43.859 55.47 43.492 54.205 43.304 53.064 43.304 52.045 43.304 51.181 43.378 50.749 43.534 50.749 43.626 50.749 43.827 51.12 44.138 51.86 44.536 53.125 44.894 54.113 45.202 54.823 45.446 55.379 46.14 56.814 47.284 59.129 48.366 61.32 49.106 63.265 49.509 64.962 50.062 67.462 50.169 70.07 49.831 72.786L49.784 72.879C49.753 73.064 49.721 73.311 49.69 73.62L49.323 75.888 49.227 76.165C49.198 76.227 48.95 76.612 48.489 77.323 47.964 78.064 47.657 78.958 47.561 80.009H40.385A569 569 0 0 1 27.098 79.777C26.082 79.777 25.09 79.761 24.135 79.731H23.994C23.101 78.25 22.639 77.494 22.607 77.462 22.084 77.37 21.789 77.293 21.728 77.231A2.6 2.6 0 0 1 20.708 76.767L20.151 76.397C20.088 76.335 19.936 76.165 19.688 75.888A5.3 5.3 0 0 1 18.95 74.638C18.608 73.836 18.378 72.879 18.255 71.767 18.132 70.934 18.085 69.96 18.116 68.85L18.255 65.934C18.284 65.594 18.36 65.13 18.485 64.545 18.639 63.773 18.715 63.356 18.715 63.295L19.408 60.934C19.472 60.687 19.719 60.039 20.15 58.99 20.244 58.743 20.49 58.249 20.892 57.509 20.955 57.356 21.154 56.999 21.496 56.445A17.2 17.2 0 0 1 18.205 51.074C17.992 50.457 17.851 50.01 17.793 49.732 17.607 49.142 17.5 48.741 17.469 48.525M47.467 65.563C47.252 64.576 46.867 63.34 46.311 61.86A7 7 0 0 1 45.663 62.138C45.231 62.323 44.677 62.492 43.997 62.646L41.681 63.109A21 21 0 0 1 35.618 63.248 23.3 23.3 0 0 1 28.35 61.304 16 16 0 0 1 26.311 60.24C26.157 60.579 25.866 61.15 25.432 61.952L24.18 64.498C23.659 65.703 23.254 66.783 22.977 67.739A20.4 20.4 0 0 0 22.284 71.073L22.192 72.555C22.192 72.771 22.208 73.218 22.237 73.896V74.222L22.284 74.499C22.315 74.654 22.327 74.823 22.327 75.009 22.327 75.163 22.345 75.363 22.378 75.61 22.562 75.672 22.778 75.763 23.024 75.888 23.395 76.012 23.688 76.18 23.905 76.397L24.274 76.859C24.338 76.952 24.395 77.137 24.462 77.415 24.491 77.445 24.505 77.508 24.505 77.6 25.341 77.6 26.202 77.584 27.099 77.553 31.175 77.493 35.601 77.445 40.386 77.415H46.128C46.189 77.261 46.265 77.137 46.36 77.045 46.387 77.014 46.667 76.751 47.19 76.258 47.467 76.011 47.67 75.763 47.794 75.517L47.841 75.053C47.841 75.022 47.872 74.776 47.933 74.313V73.48C47.933 73.171 47.964 72.832 48.025 72.461L47.98 72.554C48.164 70.084 47.994 67.754 47.467 65.563M21.912 58.016C21.849 58.355 21.728 58.896 21.541 59.637 21.205 60.871 21.033 61.519 21.033 61.581L20.615 63.756A11 11 0 0 0 20.429 64.96C20.339 65.639 20.292 66.057 20.292 66.21L20.198 68.849C20.167 69.837 20.198 70.732 20.292 71.535 20.355 72.276 20.46 72.909 20.614 73.433A39 39 0 0 1 20.473 72.738 11 11 0 0 1 20.385 71.905V70.932C20.414 69.605 20.614 68.293 20.985 66.998A18.4 18.4 0 0 1 22.512 63.386C22.944 62.707 23.237 62.244 23.393 61.997L24.272 60.885A7.6 7.6 0 0 1 25.43 59.775 19.6 19.6 0 0 1 22.143 57.136z" fill="#ffd900" data-fill-palette-color="accent"></path></svg></g></svg></g></svg></g></svg></g></svg></g><g><path d="M0 123.6c0-68.262 55.338-123.6 123.6-123.6 52.478 0 97.318 32.705 115.248 78.845h-3.511c-17.759-44.296-61.094-75.58-111.737-75.58-66.459 0-120.335 53.876-120.335 120.335 0 66.459 53.876 120.335 120.335 120.335 50.642 0 93.978-31.283 111.737-75.58h3.511c-17.93 46.14-62.77 78.845-115.248 78.845-68.262 0-123.6-55.338-123.6-123.6z" fill="#f5fd00" stroke="transparent" data-fill-palette-color="tertiary"></path></g></svg></g><defs></defs></svg><rect width="395.52" height="247.2" fill="none" stroke="none" visibility="hidden"></rect></g></svg></g></svg>